<svg width="307" height="256" viewBox="0 0 307 256" fill="none" xmlns="http://www.w3.org/2000/svg">
<path d="M149.668 117.545C133.062 100.832 111.858 90.3744 88.8829 87.3502L102.242 71.8135C103.873 69.9165 104.328 67.2754 103.425 64.9421C102.522 62.6088 100.407 60.9616 97.9246 60.6559L60.4128 56.0498C58.1637 55.7764 55.9206 56.6418 54.4418 58.361L21.126 97.1071C19.3394 99.1832 18.9778 102.131 20.2081 104.577L43.1603 150.232C44.1792 152.259 46.1435 153.642 48.3953 153.919L85.9071 158.525C88.3994 158.832 90.8526 157.737 92.2916 155.681C93.7307 153.626 93.9179 150.945 92.7792 148.71L82.961 129.444C114.11 134.851 138.601 161.544 138.601 192.525V249.215C138.601 252.962 141.638 256 145.385 256H173.73C177.477 256 180.515 252.962 180.515 249.215V192.526C180.515 164.194 169.56 137.565 149.668 117.545ZM166.946 242.432H166.946H152.17V192.526C152.17 150.437 115.173 114.879 71.3805 114.879C69.0196 114.879 66.829 116.106 65.596 118.119C64.3623 120.131 64.264 122.64 65.3354 124.744L74.895 143.502L53.6526 140.894L34.363 102.525L62.3623 69.9616L83.6883 72.5798L69.7435 88.798C68.0142 90.8081 67.6155 93.6411 68.7219 96.0512C69.8276 98.4606 72.2357 100.005 74.8876 100.005C125.649 100.005 166.946 141.51 166.946 192.526V242.432V242.432Z" fill="#077BE7"/>
<path d="M168.557 61.5448C183.918 44.8323 203.531 34.3744 224.783 31.3502L212.426 15.8135C210.917 13.9165 210.497 11.2754 211.332 8.9421C212.167 6.60876 214.123 4.96163 216.42 4.6559L251.118 0.0498426C253.199 -0.223558 255.273 0.641762 256.641 2.36095L287.458 41.1071C289.111 43.1832 289.446 46.1306 288.307 48.5771L267.077 94.2317C266.134 96.2586 264.317 97.6418 262.234 97.9185L227.536 102.525C225.231 102.832 222.961 101.737 221.63 99.6815C220.299 97.6263 220.126 94.9448 221.179 92.7098L230.261 73.4444C201.448 78.8505 182 105.545 182 136.526L180.5 193.215C180.5 198 172.023 186.432 168.557 186.432H152C148.534 186.432 140.024 196.962 140.024 193.215V136.526C140.024 108.194 150.157 81.565 168.557 61.5448ZM152 186.432H167L166.243 136.526C166.243 94.437 200.465 58.8788 240.973 58.8788C243.157 58.8788 245.183 60.1057 246.324 62.1185C247.465 64.1313 247.556 66.6404 246.565 68.7441L237.722 87.5017L257.371 84.8936L275.214 46.5246L249.315 13.9616L229.588 16.5798L242.487 32.798C244.087 34.8081 244.456 37.6411 243.432 40.0512C242.409 42.4606 240.182 44.0054 237.729 44.0054C190.775 44.0054 152.575 85.5104 152.575 136.526L152 186.432Z" fill="#077BE7"/>
</svg>
